<svg width="30" height="28" viewBox="0 0 42 40" fill="none" xmlns="http://www.w3.org/2000/svg">
<g clip-path="url(#clip0)">
<path d="M6.49377 6.43549H18.8909C19.2307 6.43549 19.5062 6.17322 19.5062 5.84955C19.5062 5.52588 19.2307 5.26361 18.8909 5.26361H6.49377C6.154 5.26361 5.87854 5.52588 5.87854 5.84955C5.87854 6.17322 6.154 6.43549 6.49377 6.43549Z" fill="#FFFFF0"/>
<path d="M6.49377 10.293H18.8909C19.2307 10.293 19.5062 10.0307 19.5062 9.70703C19.5062 9.38336 19.2307 9.12109 18.8909 9.12109H6.49377C6.154 9.12109 5.87854 9.38336 5.87854 9.70703C5.87854 10.0307 6.154 10.293 6.49377 10.293Z" fill="#FFFFF0"/>
<path d="M38.6501 17.0484C38.6501 16.6522 38.4943 16.2798 38.2113 15.9996C37.6271 15.4215 36.6767 15.4215 36.0926 15.9996L34.6611 17.4166C34.2064 17.2632 33.6822 17.3656 33.3202 17.7241L16.4266 34.448C16.391 34.4833 16.3602 34.5228 16.3347 34.5658L14.1831 38.1937C14.0644 38.3939 14.0088 38.6127 14.0133 38.8282H4.58122C3.75558 38.8282 3.08391 38.1633 3.08391 37.3459V2.65414C3.08391 1.8368 3.75558 1.17188 4.58122 1.17188H23.5412V8.1443C23.5412 9.32906 24.5149 10.293 25.7117 10.293H32.755V15.7162C32.755 16.0398 33.02 16.3021 33.3469 16.3021C33.6737 16.3021 33.9387 16.0398 33.9387 15.7162V9.70703C33.9387 9.55164 33.8764 9.40266 33.7654 9.29266L24.5516 0.171563C24.4407 0.0617188 24.2901 0 24.1331 0H4.58122C3.10285 0 1.90015 1.19062 1.90015 2.65414V37.3459C1.90015 38.8094 3.10285 40.0001 4.58122 40.0001H31.2576C32.736 40.0001 33.9387 38.8095 33.9387 37.3459V25.9961C33.9387 25.6724 33.6737 25.4102 33.3468 25.4102C33.0199 25.4102 32.7549 25.6724 32.7549 25.9961V37.3459C32.7549 38.1632 32.0832 38.8281 31.2576 38.8281H17.5641L19.5024 37.7016C19.5457 37.6764 19.5856 37.6458 19.6212 37.6106L36.5149 20.8867C36.7605 20.6436 36.8958 20.3203 36.8958 19.9764C36.8958 19.808 36.8634 19.6445 36.8013 19.493L38.2114 18.0971C38.4943 17.817 38.6501 17.4445 38.6501 17.0484ZM24.725 8.1443V2.00047L31.9179 9.12109H25.7117C25.1677 9.12109 24.725 8.68297 24.725 8.1443ZM33.2205 22.4906L31.7 20.9854L32.4442 20.2487L33.9647 21.7539L33.2205 22.4906ZM19.2028 36.3676L17.6823 34.8623L30.8629 21.8141L32.3834 23.3193L19.2028 36.3676ZM15.2245 38.8281C15.2149 38.8259 15.1986 38.8098 15.1967 38.8029C15.1969 38.8014 15.1987 38.7959 15.204 38.787L16.968 35.8127L18.2429 37.0748L15.2384 38.821C15.2298 38.8259 15.2245 38.8278 15.2248 38.8282H15.2245V38.8281ZM35.6779 20.058L34.8018 20.9252L33.2813 19.42L34.1573 18.5528C34.2028 18.5078 34.2768 18.5078 34.3223 18.5528L35.6779 19.8948C35.7061 19.9227 35.7121 19.9547 35.7121 19.9764C35.712 19.9982 35.7061 20.0301 35.6779 20.058ZM37.3743 17.2684L36.0366 18.5927L35.592 18.1525L36.9297 16.8284C37.0521 16.707 37.2517 16.707 37.3743 16.8284C37.4336 16.8871 37.4664 16.9652 37.4664 17.0484C37.4664 17.1315 37.4337 17.2096 37.3743 17.2684Z" fill="#FFFFF0"/>
</g>
<defs>
<clipPath id="clip0">
<rect width="42" height="40" fill="white"/>
</clipPath>
</defs>
</svg>
