<?xml version="1.0" standalone="no"?>
<!DOCTYPE svg PUBLIC "-//W3C//DTD SVG 20010904//EN"
 "http://www.w3.org/TR/2001/REC-SVG-20010904/DTD/svg10.dtd">
<svg version="1.0" xmlns="http://www.w3.org/2000/svg"
 width="512.000000pt" height="512.000000pt" viewBox="0 0 512.000000 512.000000"
 preserveAspectRatio="xMidYMid meet">

<g transform="translate(0.000000,512.000000) scale(0.100000,-0.100000)"
fill="#FFF" stroke="none">
<path d="M43 4220 c-39 -16 -43 -40 -43 -263 0 -202 1 -216 21 -241 15 -19 30
-26 54 -26 24 0 39 7 54 26 19 24 21 40 21 181 0 133 2 154 15 149 8 -3 191
-62 407 -132 216 -69 394 -127 396 -129 4 -3 -578 -1295 -591 -1312 -7 -9 -43
-13 -118 -13 l-109 0 0 519 c0 577 3 554 -67 567 -26 5 -37 1 -57 -19 l-26
-26 0 -566 c0 -350 4 -573 10 -585 5 -10 24 -23 41 -29 41 -14 356 -15 397 0
24 8 37 24 58 70 15 32 29 59 30 59 16 0 407 -239 430 -263 18 -18 66 -97 109
-177 72 -136 76 -147 65 -175 -39 -97 -42 -112 -37 -177 8 -120 95 -215 216
-234 40 -6 41 -8 47 -54 13 -100 94 -196 187 -221 23 -6 65 -9 94 -7 l52 5 17
-40 c56 -124 230 -181 349 -114 l39 22 47 -47 c127 -127 338 -86 417 80 11 23
21 31 31 26 193 -81 490 -94 612 -27 68 37 120 108 134 185 7 39 22 48 86 48
98 0 206 67 248 153 11 23 23 68 27 99 l7 57 53 26 c87 42 140 121 150 224 6
57 8 60 46 77 42 19 88 65 114 115 35 69 28 176 -17 240 l-18 26 47 31 c26 17
67 44 91 61 l44 31 192 0 192 0 17 -44 c13 -34 25 -47 48 -55 40 -14 358 -14
394 -1 53 21 53 22 54 343 l0 298 -25 24 c-31 32 -69 32 -100 0 l-25 -24 0
-251 0 -250 -109 0 c-96 0 -110 2 -115 18 -3 9 -102 327 -221 706 -119 379
-215 690 -213 691 4 5 637 175 648 175 6 0 10 -159 10 -425 l0 -426 25 -24
c13 -14 36 -25 50 -25 14 0 37 11 50 25 l25 24 0 488 c0 529 1 523 -54 537
-23 6 -855 -212 -898 -235 -30 -16 -32 -56 -8 -141 12 -43 21 -80 19 -81 -2
-2 -76 -36 -165 -75 -183 -82 -203 -85 -315 -47 -163 56 -315 83 -360 64 -55
-22 -59 -107 -7 -129 13 -5 65 -16 117 -25 51 -8 140 -31 197 -50 110 -37 178
-44 249 -24 21 6 104 40 183 76 79 35 147 61 151 58 10 -10 328 -1029 324
-1037 -2 -5 -79 -8 -171 -8 -92 0 -184 -5 -204 -10 -20 -6 -65 -31 -99 -57
-35 -25 -88 -58 -119 -72 -115 -53 -317 -23 -457 68 -121 78 -185 153 -278
325 -96 178 -114 187 -327 157 -148 -20 -188 -33 -220 -68 -9 -10 -42 -72 -73
-138 -31 -66 -67 -134 -80 -151 -35 -46 -117 -84 -180 -84 -53 0 -115 16 -115
29 0 4 33 137 74 295 46 178 82 296 93 308 22 24 459 324 519 355 23 12 73 27
110 33 77 12 104 33 104 81 0 16 -9 38 -21 50 -19 19 -29 21 -93 16 -96 -7
-156 -32 -279 -115 l-104 -71 -89 15 c-126 20 -309 18 -420 -5 -93 -19 -231
-70 -338 -123 -100 -50 -132 -43 -441 96 -143 65 -264 121 -268 125 -4 4 11
47 33 95 45 98 49 127 21 155 -20 20 -33 24 -506 176 -165 53 -354 114 -420
136 -129 42 -129 42 -162 29z m1251 -857 l281 -127 100 -1 c100 0 100 0 210
52 195 91 297 116 460 111 l100 -3 -77 -52 c-76 -52 -109 -87 -127 -136 -6
-14 -49 -175 -96 -358 -97 -379 -97 -373 -17 -407 197 -85 362 -63 488 63 48
48 77 98 147 258 l24 53 104 12 c57 8 114 16 125 18 19 5 30 -8 79 -98 107
-191 187 -284 314 -367 120 -77 290 -131 414 -131 51 0 57 -3 91 -40 40 -44
45 -74 21 -120 -21 -40 -43 -50 -113 -50 -154 0 -375 70 -507 159 -43 30 -89
27 -114 -5 -43 -55 -26 -88 76 -146 140 -80 290 -132 446 -153 42 -6 47 -9 47
-32 0 -40 -30 -92 -64 -111 -25 -14 -57 -17 -171 -16 -122 0 -151 4 -228 27
-49 15 -125 44 -169 64 -75 34 -82 36 -106 22 -40 -22 -56 -58 -43 -92 24 -61
288 -157 478 -174 l88 -8 -1 -33 c-2 -42 -26 -77 -67 -99 -25 -13 -58 -17
-147 -16 -164 0 -216 13 -462 116 -36 15 -78 0 -97 -34 -12 -22 -12 -31 -2
-58 11 -24 29 -39 85 -65 86 -41 208 -82 268 -91 25 -4 50 -10 57 -14 18 -12
4 -55 -29 -86 -57 -54 -262 -57 -435 -5 l-70 22 0 71 c0 60 -5 80 -29 125 -43
78 -128 132 -207 132 -27 0 -29 2 -29 43 0 23 -10 62 -21 87 -45 99 -128 150
-245 150 -68 0 -72 1 -78 25 -9 36 -72 102 -120 128 -32 17 -59 22 -124 22
-81 1 -83 1 -101 30 -44 73 -149 135 -226 135 -70 0 -166 -50 -210 -110 l-23
-31 -19 33 c-11 18 -40 71 -64 117 -62 117 -116 163 -355 300 -109 63 -201
116 -203 117 -5 4 401 904 407 904 3 0 131 -57 286 -127z m260 -1394 c43 -49
34 -96 -49 -246 -51 -91 -75 -125 -100 -138 -44 -24 -96 -14 -129 26 -40 48
-35 85 30 208 91 171 115 195 184 186 23 -3 45 -15 64 -36z m300 -129 c30 -11
66 -65 66 -99 0 -33 -187 -378 -226 -418 -36 -37 -76 -43 -125 -17 -37 18 -62
73 -53 111 12 48 206 393 232 413 27 22 66 25 106 10z m357 -201 c50 -53 43
-83 -67 -286 -102 -187 -130 -227 -171 -238 -35 -8 -89 12 -113 42 -38 48 -28
83 80 283 56 102 112 195 126 208 18 16 38 22 71 22 37 0 50 -5 74 -31z m265
-283 c48 -48 45 -80 -17 -194 -42 -78 -57 -96 -87 -109 -70 -29 -152 23 -152
98 0 35 75 177 111 212 44 41 100 38 145 -7z"/>
</g>
</svg>
