<svg  width="30" height="28" viewBox="0 0 43 40" fill="none" xmlns="http://www.w3.org/2000/svg">
<g clip-path="url(#clip0)">
<path d="M24.2499 24.6893L24.8491 36.2509C24.8653 36.5645 25.1438 36.8086 25.4777 36.8086C25.4879 36.8086 25.4982 36.8084 25.5086 36.8079C25.856 36.7924 26.1241 36.5177 26.1074 36.1944L25.5082 24.6328C25.4915 24.3096 25.1984 24.0606 24.8487 24.0758C24.5013 24.0914 24.2332 24.366 24.2499 24.6893Z" fill="#FFFFF0"/>
<path d="M27.7848 36.232C27.7903 36.5524 28.0712 36.8085 28.4145 36.8085C28.4178 36.8085 28.4214 36.8085 28.4247 36.8084C28.7726 36.8033 29.05 36.5367 29.0444 36.2131L28.8446 24.6516C28.8392 24.3281 28.554 24.0722 28.2048 24.0752C27.8569 24.0803 27.5795 24.3469 27.585 24.6705L27.7848 36.232Z" fill="#FFFFF0"/>
<path d="M31.3407 36.8084C31.3442 36.8084 31.3476 36.8085 31.3511 36.8085C31.6941 36.8085 31.9752 36.5523 31.9806 36.232L32.1803 24.6705C32.1859 24.3469 31.9085 24.0804 31.5606 24.0751C31.2114 24.0703 30.9262 24.328 30.9207 24.6515L30.721 36.2131C30.7155 36.5367 30.9929 36.8033 31.3407 36.8084Z" fill="#FFFFF0"/>
<path d="M34.2569 36.8079C34.2672 36.8084 34.2774 36.8086 34.2877 36.8086C34.6217 36.8086 34.9001 36.5645 34.9163 36.2509L35.5155 24.6893C35.5322 24.366 35.2642 24.0914 34.9167 24.0758C34.5705 24.0613 34.2741 24.3096 34.2572 24.6328L33.658 36.1944C33.6413 36.5177 33.9094 36.7923 34.2569 36.8079Z" fill="#FFFFF0"/>
<path d="M18.3427 5.26367H5.65051C5.30257 5.26367 5.02063 5.52602 5.02063 5.84961C5.02063 6.1732 5.30257 6.43555 5.65051 6.43555H18.3427C18.6907 6.43555 18.9726 6.1732 18.9726 5.84961C18.9726 5.52602 18.6907 5.26367 18.3427 5.26367Z" fill="#FFFFF0"/>
<path d="M18.3427 9.12109H5.65051C5.30257 9.12109 5.02063 9.38344 5.02063 9.70703C5.02063 10.0306 5.30257 10.293 5.65051 10.293H18.3427C18.6907 10.293 18.9726 10.0306 18.9726 9.70703C18.9726 9.38344 18.6907 9.12109 18.3427 9.12109Z" fill="#FFFFF0"/>
<path d="M20.0723 38.8281H3.80071C2.92207 38.8281 2.20728 38.1632 2.20728 37.3459V2.65414C2.20728 1.8368 2.92207 1.17188 3.80071 1.17188H23.978V8.14437C23.978 9.32914 25.0141 10.293 26.2878 10.293H33.7831V14.1797C33.7831 14.5033 34.0651 14.7656 34.413 14.7656C34.761 14.7656 35.0429 14.5033 35.0429 14.1797V9.70703C35.0429 9.55164 34.9765 9.40258 34.8585 9.29273L25.0533 0.171641C24.935 0.0617188 24.7749 0 24.6078 0H3.80071C2.22743 0 0.94751 1.19062 0.94751 2.65414V37.3459C0.94751 38.8094 2.22743 40 3.80071 40H20.0723C20.4202 40 20.7021 39.7377 20.7021 39.4141C20.7021 39.0905 20.4202 38.8281 20.0723 38.8281ZM25.2377 8.14437V2.00047L32.8924 9.12109H26.2878C25.7087 9.12109 25.2377 8.68297 25.2377 8.14437Z" fill="#FFFFF0"/>
<path d="M39.8061 18.6719H36.4002C36.079 17.2801 34.7617 16.2573 33.1714 16.2573H26.5942C25.0039 16.2573 23.6867 17.2801 23.3654 18.6719H19.9595C18.7208 18.6719 17.713 19.6094 17.713 20.7616C17.713 21.9139 18.7208 22.8514 19.9595 22.8514H20.2742L21.2045 37.1927C21.3059 38.7578 22.7058 39.9838 24.3913 39.9838H35.3743C37.0598 39.9838 38.4597 38.7579 38.5611 37.1927L39.4914 22.8514H39.8061C41.0448 22.8514 42.0525 21.9139 42.0525 20.7616C42.0525 19.6094 41.0448 18.6719 39.8061 18.6719ZM26.5941 17.4292H33.1713C34.0569 17.4292 34.8057 17.9417 35.0913 18.6719H24.6741C24.9599 17.9417 25.7086 17.4292 26.5941 17.4292ZM39.8061 21.6795H25.4783C25.1303 21.6795 24.8484 21.9419 24.8484 22.2654C24.8484 22.589 25.1303 22.8514 25.4783 22.8514H38.2294L37.3037 37.1222C37.2423 38.0697 36.3947 38.8119 35.3743 38.8119H24.3912C23.3708 38.8119 22.5233 38.0697 22.4618 37.1222L21.5361 22.8514H22.5476C22.8955 22.8514 23.1775 22.589 23.1775 22.2654C23.1775 21.9419 22.8955 21.6795 22.5476 21.6795H19.9595C19.4154 21.6795 18.9728 21.2677 18.9728 20.7616C18.9728 20.2555 19.4155 19.8438 19.9595 19.8438H39.8061C40.3502 19.8438 40.7928 20.2555 40.7928 20.7616C40.7928 21.2677 40.3501 21.6795 39.8061 21.6795Z" fill="#FFFFF0"/>
</g>
<defs>
<clipPath id="clip0">
<rect width="42" height="40" fill="white"/>
</clipPath>
</defs>
</svg>
