<svg width="30" height="28" viewBox="0 0 42 40" fill="none" xmlns="http://www.w3.org/2000/svg">
<g clip-path="url(#clip0)">
<path d="M18.8061 5.2843H8.95898C8.61913 5.2843 8.34375 5.54665 8.34375 5.87024C8.34375 6.19383 8.61913 6.45618 8.95898 6.45618H18.8061C19.146 6.45618 19.4213 6.19383 19.4213 5.87024C19.4213 5.54665 19.1459 5.2843 18.8061 5.2843Z" fill="#FFF"/>
<path d="M18.8061 8.34827H8.95898C8.61913 8.34827 8.34375 8.61061 8.34375 8.9342C8.34375 9.2578 8.61913 9.52014 8.95898 9.52014H18.8061C19.146 9.52014 19.4213 9.2578 19.4213 8.9342C19.4213 8.61061 19.1459 8.34827 18.8061 8.34827Z" fill="#FFF"/>
<path d="M27.9612 20.4921C25.0863 17.7541 20.4088 17.7541 17.5338 20.4921C14.6591 23.23 14.6591 27.6849 17.5338 30.4229C18.9713 31.7918 20.8594 32.4763 22.7476 32.4763C24.6358 32.4763 26.5238 31.7919 27.9613 30.4229C29.3539 29.0965 30.1209 27.3332 30.1209 25.4575C30.1209 23.5818 29.3539 21.8183 27.9612 20.4921ZM27.0911 29.5942C25.8935 30.7348 24.3208 31.3051 22.7476 31.3049C21.1747 31.3047 19.6013 30.7345 18.404 29.5942C16.009 27.3132 16.009 23.6017 18.404 21.3207C19.5643 20.2157 21.1068 19.6072 22.7476 19.6072C24.3884 19.6072 25.931 20.2157 27.0911 21.3207C28.2514 22.4257 28.8904 23.8947 28.8904 25.4574C28.8904 27.0201 28.2514 28.4893 27.0911 29.5942Z" fill="#FFF"/>
<path d="M28.852 35.5384H6.58564C5.82882 35.5384 5.21326 34.9521 5.21326 34.2314V2.47891C5.21326 1.7582 5.8289 1.17188 6.58564 1.17188H24.5718V7.50399C24.5718 8.6157 25.5215 9.52024 26.6889 9.52024H33.3375V31.3493C33.3375 31.6729 33.6129 31.9352 33.9527 31.9352C34.2926 31.9352 34.568 31.6729 34.568 31.3493V8.93422C34.568 8.77883 34.5032 8.62977 34.3878 8.51992L25.6221 0.171641C25.5066 0.0617188 25.3502 0 25.187 0H6.58564C5.15042 0 3.98279 1.11203 3.98279 2.47891V34.2313C3.98279 35.5982 5.15042 36.7102 6.58564 36.7102H28.852C29.1918 36.7102 29.4672 36.4479 29.4672 36.1243C29.4672 35.8007 29.1917 35.5384 28.852 35.5384ZM25.8023 7.50399V2.00047L32.4675 8.34828H26.6889C26.2001 8.34828 25.8023 7.96953 25.8023 7.50399Z" fill="#FFF"/>
<path d="M37.5677 36.8557L33.1981 32.6941C32.6314 32.1544 31.7284 32.1258 31.1258 32.6081L29.8721 31.4141C33.1416 27.8719 33.0012 22.4542 29.4511 19.073C25.7547 15.5526 19.7403 15.5526 16.044 19.073C12.3476 22.5934 12.3476 28.3213 16.044 31.8416C17.8346 33.5469 20.2153 34.4862 22.7476 34.4862C25.0737 34.4862 27.2718 33.6937 29.0022 32.2429L30.2558 33.4368C29.7495 34.0105 29.7796 34.8706 30.3461 35.4103L34.7158 39.5719C35.0057 39.848 35.3911 40 35.8012 40C36.2112 40 36.5966 39.848 36.8865 39.5719L37.5677 38.923C37.8576 38.6469 38.0173 38.2799 38.0173 37.8894C38.0173 37.499 37.8576 37.1318 37.5677 36.8557ZM16.9141 31.013C13.6975 27.9497 13.6975 22.9651 16.9141 19.9016C18.5223 18.3699 20.6349 17.604 22.7475 17.604C24.8601 17.604 26.9727 18.3699 28.5809 19.9016C31.7975 22.9651 31.7975 27.9496 28.5809 31.013C27.0228 32.497 24.9511 33.3143 22.7475 33.3143C20.5439 33.3143 18.4723 32.497 16.9141 31.013ZM36.6976 38.0943C36.6976 38.0943 36.6976 38.0944 36.6976 38.0943L36.0163 38.7432C35.9388 38.8171 35.8481 38.8281 35.8011 38.8281C35.754 38.8281 35.6634 38.8171 35.5859 38.7432L31.2161 34.5816C31.0974 34.4686 31.0974 34.2846 31.2161 34.1715L31.8973 33.5227C31.9567 33.4662 32.0347 33.438 32.1127 33.438C32.1907 33.438 32.2686 33.4662 32.3279 33.5227L36.6976 37.6844C36.7752 37.7583 36.7868 37.8445 36.7868 37.8894C36.7868 37.9342 36.7752 38.0205 36.6976 38.0943Z" fill="#FFF"/>
</g>
<defs>
<clipPath id="clip0">
<rect width="42" height="40" fill="#FFF"/>
</clipPath>
</defs>
</svg>
