<svg width="40" height="40" viewBox="0 0 40 40" fill="none" xmlns="http://www.w3.org/2000/svg">
<path d="M39.2176 17.7324C39.291 17.5549 39.291 17.3549 39.2176 17.1767C39.1805 17.0873 39.1267 17.0065 39.0598 16.9389L30.3332 8.21309C30.0489 7.92873 29.5892 7.92873 29.3049 8.21309C29.0205 8.49745 29.0205 8.95709 29.3049 9.24145L36.7907 16.7273H21.0918C20.6896 16.7273 20.3645 17.0524 20.3645 17.4545C20.3645 17.8567 20.6896 18.1818 21.0918 18.1818H36.7907L29.3049 25.6676C29.0205 25.952 29.0205 26.4116 29.3049 26.696C29.4467 26.8378 29.6329 26.9091 29.819 26.9091C30.0052 26.9091 30.1914 26.8378 30.3332 26.696L39.0598 17.9695C39.1267 17.9025 39.1805 17.8218 39.2176 17.7324Z" fill="black"/>
<path d="M26.1826 21.0909C25.7804 21.0909 25.4553 21.416 25.4553 21.8182V33.4545H18.1826V5.81818C18.1826 5.50109 17.9775 5.22109 17.6757 5.12509L6.13966 1.45455H25.4553V13.0909C25.4553 13.4931 25.7804 13.8182 26.1826 13.8182C26.5848 13.8182 26.9098 13.4931 26.9098 13.0909V0.727273C26.9098 0.325091 26.5848 0 26.1826 0H1.4553C1.43203 0 1.41166 0.0109091 1.38912 0.0130909C1.34839 0.0167273 1.31275 0.0261818 1.27421 0.0363636C1.20585 0.0545455 1.14475 0.0792727 1.08585 0.114909C1.06694 0.126545 1.04439 0.126545 1.02621 0.139636C1.00366 0.156364 0.986209 0.177455 0.965845 0.195636C0.953482 0.207273 0.940391 0.217455 0.928755 0.229818C0.873482 0.289455 0.828391 0.355636 0.794936 0.428364C0.788391 0.442909 0.784755 0.457455 0.778936 0.472C0.748391 0.553455 0.728027 0.638545 0.728027 0.727273V34.1818C0.728027 34.2727 0.749118 34.3585 0.780391 34.44C0.790573 34.4669 0.805846 34.4895 0.818936 34.5149C0.845846 34.5665 0.876391 34.6138 0.914936 34.6575C0.936027 34.6807 0.957118 34.7018 0.980391 34.7229C1.02257 34.76 1.06985 34.7905 1.12075 34.8175C1.14766 34.832 1.17239 34.8473 1.20148 34.8582C1.21385 34.8625 1.2233 34.8713 1.23566 34.8756L17.2357 39.9665C17.3069 39.9884 17.3811 40 17.4553 40C17.608 40 17.7586 39.952 17.8844 39.8604C18.072 39.7236 18.1826 39.5055 18.1826 39.2727V34.9091H26.1826C26.5848 34.9091 26.9098 34.584 26.9098 34.1818V21.8182C26.9098 21.416 26.584 21.0909 26.1826 21.0909ZM16.728 38.2785L2.18257 33.6502V1.72145L16.728 6.34982V38.2785Z" fill="black"/>
</svg>
