<svg  width="30" height="28" viewBox="0 0 42 40" fill="none" xmlns="http://www.w3.org/2000/svg">
<g clip-path="url(#clip0)">
<path d="M6.7312 6.44659H19.1187C19.4585 6.44659 19.7339 6.18433 19.7339 5.86066C19.7339 5.53698 19.4585 5.27472 19.1187 5.27472H6.7312C6.39135 5.27472 6.11597 5.53698 6.11597 5.86066C6.11597 6.18433 6.39135 6.44659 6.7312 6.44659Z" fill="#FFFFF0"/>
<path d="M6.7312 10.301H19.1187C19.4585 10.301 19.7339 10.0388 19.7339 9.71509C19.7339 9.39142 19.4585 9.12915 19.1187 9.12915H6.7312C6.39135 9.12915 6.11597 9.39142 6.11597 9.71509C6.11597 10.0388 6.39135 10.301 6.7312 10.301Z" fill="#FFFFF0"/>
<path d="M39.3246 28.3389C39.3245 28.3389 39.3245 28.3388 39.3246 28.3389L31.5136 21.6577C31.0644 21.2736 30.4429 21.1803 29.8915 21.4146C29.3401 21.6488 28.9976 22.1515 28.9976 22.7265V25.0822C17.6712 25.953 15.0903 34.9094 14.5062 38.7696C14.5032 38.7891 14.5009 38.8087 14.499 38.8281H4.96218C4.10397 38.8281 3.4058 38.1632 3.4058 37.3459V2.65414C3.40588 1.8368 4.10397 1.17188 4.96218 1.17188H24.6702V8.1443C24.6702 9.32906 25.6823 10.293 26.9263 10.293H34.2473V22.6326C34.2473 22.9562 34.5227 23.2185 34.8626 23.2185C35.2024 23.2185 35.4778 22.9562 35.4778 22.6326V9.70703C35.4778 9.55164 35.413 9.40266 35.2977 9.29266L25.7205 0.171563C25.6051 0.0617188 25.4486 0 25.2854 0H4.96218C3.42557 0 2.17542 1.19062 2.17542 2.65414V37.3459C2.17542 38.8094 3.42557 40 4.96218 40H32.691C34.2276 40 35.4778 38.8094 35.4778 37.3459V36.1362C35.4778 35.8125 35.2024 35.5502 34.8626 35.5502C34.5227 35.5502 34.2473 35.8125 34.2473 36.1362V37.3459C34.2473 38.1632 33.5492 38.8281 32.691 38.8281H17.1583C18.4056 37.4648 19.9375 36.3322 21.6364 35.5232C23.648 34.5654 25.9005 34.0591 28.1504 34.0591H28.9974V36.0887C28.9974 36.6637 29.34 37.1663 29.8913 37.4005C30.4426 37.6348 31.0643 37.5415 31.5135 37.1574L39.3244 30.4762C39.6424 30.2042 39.8247 29.8147 39.8247 29.4076C39.8247 29.0005 39.6425 28.611 39.3246 28.3389ZM25.9007 8.1443V2.00047L33.3773 9.12109H26.9263C26.3608 9.12109 25.9007 8.68297 25.9007 8.1443ZM38.5022 29.6045L30.6914 36.2855C30.5746 36.3853 30.454 36.3565 30.3926 36.3303C30.3311 36.3042 30.2279 36.238 30.2279 36.0887V33.4732C30.2279 33.1495 29.9525 32.8873 29.6126 32.8873H28.1504C25.7105 32.8873 23.2678 33.4363 21.0862 34.4751C19.0355 35.4515 17.2093 36.8627 15.7832 38.57C16.1303 36.5435 16.9452 33.755 18.8492 31.3176C21.3061 28.172 24.9385 26.4554 29.6456 26.2152C29.9721 26.1986 30.228 25.9416 30.228 25.6302V22.7265C30.228 22.5771 30.3312 22.5109 30.3927 22.4848C30.4214 22.4727 30.463 22.4598 30.5111 22.4598C30.566 22.4598 30.6293 22.4765 30.6914 22.5297L38.5021 29.2107C38.5824 29.2794 38.5943 29.3635 38.5943 29.4077C38.5943 29.4518 38.5824 29.5359 38.5022 29.6045Z" fill="#FFFFF0"/>
</g>
<defs>
<clipPath id="clip0">
<rect width="42" height="40" fill="white"/>
</clipPath>
</defs>
</svg>
