<svg width="30" height="28" viewBox="0 0 42 40" fill="none" xmlns="http://www.w3.org/2000/svg">
<g clip-path="url(#clip0)">
<path d="M5.68628 5.26361C5.34651 5.26361 5.07104 5.52588 5.07104 5.84955C5.07104 6.17322 5.34651 6.43549 5.68628 6.43549H18.0834C18.4232 6.43549 18.6987 6.17322 18.6987 5.84955C18.6987 5.52588 18.4232 5.26361 18.0834 5.26361H5.68628Z" fill="#FFFFF0"/>
<path d="M18.6987 9.70703C18.6987 9.38336 18.4232 9.12109 18.0834 9.12109H5.68628C5.34651 9.12109 5.07104 9.38336 5.07104 9.70703C5.07104 10.0307 5.34651 10.293 5.68628 10.293H18.0834C18.4232 10.293 18.6987 10.0307 18.6987 9.70703Z" fill="#FFFFF0"/>
<path d="M34.8132 33.9554H24.3059C23.9661 33.9554 23.6907 34.2177 23.6907 34.5414C23.6907 34.8651 23.9661 35.1273 24.3059 35.1273H34.8132C35.1531 35.1273 35.4284 34.8651 35.4284 34.5414C35.4284 34.2177 35.153 33.9554 34.8132 33.9554Z" fill="#FFFFF0"/>
<path d="M34.8132 36.4963H24.3059C23.9661 36.4963 23.6907 36.7585 23.6907 37.0822C23.6907 37.4059 23.9661 37.6682 24.3059 37.6682H34.8132C35.1531 37.6682 35.4284 37.4059 35.4284 37.0822C35.4284 36.7585 35.153 36.4963 34.8132 36.4963Z" fill="#FFFFF0"/>
<path d="M39.7234 23.0065L36.6382 20.0656C35.8744 19.3378 34.8591 18.937 33.7791 18.937H20.6899C19.3496 18.937 18.259 19.9762 18.259 21.2534V37.6823C18.259 38.9597 19.3495 39.9988 20.6899 39.9988H38.4766C39.817 39.9988 40.9075 38.9596 40.9075 37.6823V25.731C40.9075 24.702 40.487 23.7343 39.7234 23.0065ZM36.3185 38.827H22.8004V33.1088C22.8004 32.8421 23.0282 32.6251 23.3083 32.6251H35.8106C36.0907 32.6251 36.3185 32.8421 36.3185 33.1088V38.827H36.3185ZM39.677 37.6824C39.677 38.3136 39.1385 38.827 38.4766 38.827H37.549V33.1088C37.549 32.1959 36.7691 31.4532 35.8107 31.4532H23.3084C22.3499 31.4532 21.5701 32.1959 21.5701 33.1088V38.827H20.6899C20.0281 38.827 19.4896 38.3136 19.4896 37.6824V21.2535C19.4896 20.6223 20.028 20.1089 20.6899 20.1089H33.7791C34.5303 20.1089 35.2366 20.3877 35.7678 20.8941L38.853 23.8348C39.3844 24.3413 39.677 25.0148 39.677 25.7311V37.6824Z" fill="#FFFFF0"/>
<path d="M31.9835 21.8376H23.3084C22.3499 21.8376 21.5701 22.5803 21.5701 23.4931V26.1619C21.5701 27.0748 22.3499 27.8174 23.3084 27.8174H31.9835C32.9421 27.8174 33.7218 27.0747 33.7218 26.1619V23.4931C33.7218 22.5803 32.942 21.8376 31.9835 21.8376ZM32.4914 26.162C32.4914 26.4287 32.2636 26.6456 31.9835 26.6456H23.3084C23.0283 26.6456 22.8005 26.4287 22.8005 26.162V23.4932C22.8005 23.2265 23.0283 23.0095 23.3084 23.0095H31.9835C32.2636 23.0095 32.4914 23.2265 32.4914 23.4932V26.162Z" fill="#FFFFF0"/>
<path d="M16.0118 38.8281H3.8795C3.02129 38.8281 2.32312 38.1631 2.32312 37.3458V2.65422C2.32312 1.83687 3.02129 1.17188 3.8795 1.17188H23.5875V8.1443C23.5875 9.32906 24.5996 10.293 25.8436 10.293H33.1647V16.8327C33.1647 17.1563 33.44 17.4186 33.7799 17.4186C34.1197 17.4186 34.3951 17.1563 34.3951 16.8327V9.70703C34.3951 9.55164 34.3303 9.40266 34.215 9.29266L24.6378 0.171563C24.5224 0.0617188 24.3659 0 24.2027 0H3.8795C2.34281 0 1.09265 1.19062 1.09265 2.65422V37.3459C1.09265 38.8094 2.34281 40.0001 3.8795 40.0001H16.0118C16.3515 40.0001 16.627 39.7378 16.627 39.4141C16.627 39.0905 16.3515 38.8281 16.0118 38.8281ZM24.818 8.1443V2.00047L32.2946 9.12109H25.8436C25.2781 9.12109 24.818 8.68297 24.818 8.1443Z" fill="#FFFFF0"/>
</g>
<defs>
<clipPath id="clip0">
<rect width="42" height="40" fill="white"/>
</clipPath>
</defs>
</svg>
