<svg width="35" height="35" viewBox="0 0 35 35" fill="none" xmlns="http://www.w3.org/2000/svg">
<path d="M34.1591 14.666L29.7188 14.2283C29.4332 13.1628 29.0084 12.1404 28.4502 11.1781L31.2852 7.72429C31.589 7.35312 31.5613 6.81212 31.2225 6.47422L28.5262 3.77659C28.3447 3.59554 28.1071 3.50307 27.8673 3.50307C27.6577 3.50307 27.4481 3.57307 27.2757 3.71523L23.8219 6.5507C22.8579 5.99199 21.8359 5.56723 20.7712 5.28204L20.3344 0.840875C20.2873 0.363832 19.8863 0 19.4067 0H15.5942C15.1146 0 14.7136 0.363832 14.666 0.840875L14.2292 5.28334C13.1645 5.56853 12.1426 5.99328 11.1811 6.55199L7.72516 3.71566C7.55232 3.5735 7.34318 3.50393 7.13361 3.50393C6.89379 3.50393 6.65613 3.59554 6.47465 3.77745L3.77832 6.47422C3.43955 6.81212 3.41189 7.35441 3.71566 7.72429L6.55286 11.1794C5.99501 12.1408 5.56896 13.1628 5.2842 14.2288L0.841739 14.6665C0.364264 14.7118 0 15.1137 0 15.5933V19.4067C0 19.8863 0.364264 20.2882 0.841307 20.334L5.28377 20.7717C5.56853 21.8372 5.99415 22.8583 6.55243 23.8197L3.71696 27.274C3.41103 27.6447 3.43696 28.1862 3.77745 28.5249L6.47378 31.2221C6.65527 31.4027 6.89292 31.4948 7.13274 31.4948C7.34231 31.4948 7.55188 31.4248 7.72429 31.2835L11.1781 28.448C12.1421 29.0067 13.1615 29.4315 14.2288 29.7175L14.6656 34.1591C14.7127 34.6362 15.1141 35 15.5938 35H19.4062C19.8859 35 20.2873 34.6362 20.3344 34.1591L20.7712 29.718C21.8381 29.4328 22.8579 29.008 23.8219 28.448L27.2757 31.2835C27.4485 31.4248 27.6577 31.4948 27.8673 31.4948C28.1071 31.4948 28.3447 31.4027 28.5262 31.2221L31.2225 28.5249C31.563 28.1866 31.589 27.6447 31.283 27.274L28.4497 23.821C29.008 22.8583 29.4328 21.8372 29.7184 20.7717L34.1587 20.334C34.6357 20.2869 35 19.8863 35 19.4067V15.5933C35.0004 15.1137 34.6362 14.7131 34.1591 14.666ZM17.5011 22.6639C14.6479 22.6639 12.3361 20.3517 12.3361 17.5002C12.3361 14.6475 14.6483 12.3361 17.5011 12.3361C20.3521 12.3361 22.6639 14.6475 22.6639 17.5002C22.6643 20.3517 20.3521 22.6639 17.5011 22.6639Z" fill="#F8F9FA"/>
</svg>
